<?xml version="1.0" encoding="utf-8"?>
<!-- Generator: Adobe Illustrator 21.1.0, SVG Export Plug-In . SVG Version: 6.00 Build 0)  -->
<svg version="1.1" id="Capa_1" xmlns="http://www.w3.org/2000/svg" xmlns:xlink="http://www.w3.org/1999/xlink" x="0px" y="0px"
	 viewBox="0 0 340.2 340.2" style="enable-background:new 0 0 340.2 340.2;" xml:space="preserve">
<style type="text/css">
	.st0{fill:#D9D9D9;}
	.st1{fill:#63A70A;}
	.st2{fill:#82BC00;}
	.st3{fill:#1D1D1B;}
	.st4{fill:#003DA6;}
	.st5{fill:#EB0029;}
</style>
<g>
	<g>
		<path class="st0" d="M86.6,321.9l-0.2-8.9h-0.1c-0.2,1.1-0.4,1.9-0.5,2.6l-1.5,6.4h-3l-1.4-6.4c-0.1-0.6-0.3-1.4-0.5-2.6h-0.1
			l-0.1,8.9h-1.9l0.4-10.6h3.5c0,0,1.2,5.3,1.8,8.7h0c0.7-3.4,2.1-8.7,2.1-8.7h3.5l0.4,10.6H86.6z"/>
		<path class="st0" d="M91.1,321.9v-10.6h2v10.6H91.1z"/>
		<path class="st0" d="M100.5,321.9l-3.3-8.3h-0.1l0.1,8.3h-1.8v-10.6h3.1l3.3,8.5h0.1l-0.1-8.5h1.9v10.6H100.5z"/>
		<path class="st0" d="M106,321.9v-10.6h2.1v10.6H106z"/>
		<path class="st0" d="M113.4,322c-1.4,0-2.6-0.5-3.5-1.1l0.8-1.6c0.6,0.5,1.7,1,2.7,1c1,0,1.6-0.6,1.6-1.4c0-2.2-4.9-1.1-4.9-4.9
			c0-1.6,1.3-2.9,3.7-2.9c1.2,0,2.3,0.3,3.1,0.7l-0.7,1.6c-0.6-0.3-1.5-0.6-2.5-0.6c-1,0-1.6,0.3-1.6,1.1c0,1.9,4.9,1.2,4.9,4.8
			C117.2,320.5,115.9,322,113.4,322z"/>
		<path class="st0" d="M122.5,313.1v8.8h-2.1v-8.8h-2.6v-1.7h7.3v1.7H122.5z"/>
		<path class="st0" d="M126.4,321.9v-10.6h6.5v1.7h-4.4v2.6h3.4l-0.2,1.8h-3.2v2.7h4.4v1.7H126.4z"/>
		<path class="st0" d="M136.6,321.9h-2v-10.6h3.4c2.1,0,3.8,1,3.8,3.2c0,1.4-0.8,2.5-2,3c0.7,1.5,1.5,2.9,2.2,4.4h-2.4l-1.7-4
			c-0.5,0-0.8,0-1.2,0V321.9z M137.6,312.9h-1v3.4h1c1.3,0,1.9-0.6,1.9-1.8C139.5,313.3,138.9,312.9,137.6,312.9z"/>
		<path class="st0" d="M143.6,321.9v-10.6h2.1v10.6H143.6z"/>
		<path class="st0" d="M152.1,322c-3.5,0-4.5-2.6-4.5-5.5c0-2.8,1-5.4,4.5-5.4c3.6,0,4.5,2.5,4.5,5.4
			C156.7,319.3,155.6,322,152.1,322z M152.1,312.9c-1.8,0-2.3,1.7-2.3,3.6c0,2.1,0.5,3.8,2.3,3.8c1.8,0,2.4-1.7,2.4-3.8
			C154.5,314.6,154,312.9,152.1,312.9z"/>
		<path class="st0" d="M165.6,322c-1.5,0-2.8-0.3-3.8-0.6v-10.2h3.5c3.1,0,5,1.2,5,5.2C170.3,319.9,168.9,322,165.6,322z M165.3,313
			h-1.4v7.1c0.4,0.1,1.1,0.2,1.8,0.2c1.4,0,2.5-0.8,2.5-3.8C168.2,313.9,167.4,313,165.3,313z"/>
		<path class="st0" d="M172.2,321.9v-10.6h6.5v1.7h-4.4v2.6h3.4l-0.2,1.8h-3.2v2.7h4.4v1.7H172.2z"/>
		<path class="st0" d="M185,321.9h-2l2.9-10.6h3.4l2.8,10.6h-2.3l-0.6-2.4h-3.6L185,321.9z M187.1,313.1l-1.2,4.7h2.9l-1.1-4.7
			H187.1z"/>
		<path class="st0" d="M201.2,321.1c-1.4,0.6-2.5,0.9-3.8,0.9c-3.2,0-4.8-2.2-4.8-5.5c0-3.2,1.6-5.3,4.9-5.3c1.6,0,2.6,0.4,3.5,0.9
			l-0.9,1.6c-0.6-0.4-1.5-0.7-2.6-0.7c-1.9,0-2.8,1.4-2.8,3.5c0,2.5,0.9,3.8,2.7,3.8c0.7,0,1.3-0.1,1.8-0.3v-2h-1.4l-0.1-1.5h3.5
			V321.1z"/>
		<path class="st0" d="M205,321.9h-2v-10.6h3.4c2.1,0,3.8,1,3.8,3.2c0,1.4-0.8,2.5-2,3c0.7,1.5,1.5,2.9,2.2,4.4H208l-1.7-4
			c-0.5,0-0.8,0-1.2,0V321.9z M206.1,312.9h-1v3.4h1c1.3,0,1.9-0.6,1.9-1.8C208,313.3,207.3,312.9,206.1,312.9z"/>
		<path class="st0" d="M212.1,321.9v-10.6h2v10.6H212.1z"/>
		<path class="st0" d="M220.6,322c-3,0-4.6-2-4.6-5.5c0-3.3,1.6-5.4,4.6-5.4c1.4,0,2.7,0.3,3.6,0.9l-0.8,1.7
			c-0.5-0.4-1.5-0.7-2.6-0.7c-1.8,0-2.6,1.2-2.6,3.6c0,2.4,0.9,3.7,2.6,3.7c1,0,2.1-0.4,2.8-1l0.7,1.7
			C223.2,321.6,222,322,220.6,322z"/>
		<path class="st0" d="M233.7,317.9c0,2.2-1.2,4.2-4,4.2c-2.8,0-4-1.9-4-4.2v-6.6h2v6.4c0,1.5,0.6,2.5,1.9,2.5c1.3,0,1.9-1,1.9-2.5
			v-6.4h2.1V317.9z"/>
		<path class="st0" d="M235.9,321.9v-10.6h2.1v8.8h4.4v1.7H235.9z"/>
		<path class="st0" d="M245.9,313.1v8.8h-2.1v-8.8h-2.6v-1.7h7.3v1.7H245.9z"/>
		<path class="st0" d="M257.8,317.9c0,2.2-1.2,4.2-4,4.2c-2.8,0-4-1.9-4-4.2v-6.6h2.1v6.4c0,1.5,0.6,2.5,1.9,2.5
			c1.3,0,1.9-1,1.9-2.5v-6.4h2.1V317.9z"/>
		<path class="st0" d="M261.9,321.9h-2v-10.6h3.4c2.1,0,3.8,1,3.8,3.2c0,1.4-0.8,2.5-2,3c0.7,1.5,1.5,2.9,2.2,4.4h-2.4l-1.7-4
			c-0.5,0-0.8,0-1.2,0V321.9z M262.9,312.9h-1v3.4h1c1.3,0,1.9-0.6,1.9-1.8C264.8,313.3,264.2,312.9,262.9,312.9z"/>
		<path class="st0" d="M269.6,321.9h-2l2.9-10.6h3.4l2.8,10.6h-2.3l-0.5-2.4h-3.6L269.6,321.9z M271.7,313.1l-1.2,4.7h2.9l-1.1-4.7
			H271.7z"/>
	</g>
	<path class="st1" d="M276.7,113c-2.2-0.2-4.5-0.2-6.8-0.2c-51.1,0-92.6,40.3-92.6,90.1c0,2.9,0.1,5.8,0.4,8.7
		C232.1,211.1,276.1,167.3,276.7,113z"/>
	<path class="st2" d="M176.1,183.1c-11.9-40.8-47.7-70.4-90-70.4c-2.9,0-5.7,0.1-8.5,0.4c0.7,53.5,43.6,96.9,96.9,98.3
		c-0.3-2.9-0.4-5.9-0.4-8.9C174,195.9,174.7,189.4,176.1,183.1z"/>
	<path class="st3" d="M80.8,236.1v4.7h5.5l-0.3,2.9h-5.3v6.7h-3.3v-17.2H88v2.8H80.8z"/>
	<path class="st3" d="M97.7,250.5l-0.5-1.5c-0.6,0.8-1.9,1.8-3.9,1.8c-3.1,0-4.5-1.7-4.5-5.2V238H92v7.6c0,1.9,0.7,2.6,2.2,2.6
		c0.9,0,1.7-0.3,2.2-0.7V238h3.4v12.5H97.7z"/>
	<path class="st3" d="M110.7,250.5v-7.4c0-1.9-0.7-2.8-2.2-2.8c-0.9,0-1.6,0.4-2.2,0.8v9.4h-3.3V238h2.3l0.5,1.4
		c0.7-0.8,2.1-1.7,3.9-1.7c3.2,0,4.4,1.9,4.4,5v7.7H110.7z"/>
	<path class="st3" d="M125.1,239c-0.2-0.7-0.3-1.3-0.3-2.3v-3.8h3.3v17.6h-2.7l-0.4-1.4c-0.5,0.8-1.7,1.6-3.3,1.6
		c-2.8,0-5.1-2-5.1-6.5c0-4.1,2.3-6.5,5.4-6.5C123.3,237.8,124.4,238.2,125.1,239z M124.8,240.9c-0.5-0.3-1.3-0.6-2.3-0.6
		c-1.6,0-2.6,1.1-2.6,4c0,3,0.9,4.1,2.5,4.1c0.8,0,1.7-0.4,2.3-1.1V240.9z"/>
	<path class="st3" d="M139.4,250.5L139,249c-0.6,0.9-1.9,1.7-3.6,1.7c-2.5,0-4.2-1.6-4.2-4c0-2.3,1.7-3.7,4.7-3.7h2.6v-0.6
		c0-1.6-0.9-2.1-2.2-2.1c-1.5,0-2.7,0.4-3.7,0.8l-0.8-2.4c1.3-0.5,3-1,4.9-1c3.5,0,5.1,1.6,5.1,4.8v7.9H139.4z M138.5,245h-2.1
		c-1.4,0-2,0.7-2,1.6c0,1.1,0.6,1.8,1.9,1.8c0.8,0,1.6-0.4,2.2-0.8V245z"/>
	<path class="st3" d="M155.2,249.6c-0.7,0.4-2.4,1.1-4.3,1.1c-3.7,0-6-2.1-6-6.5c0-4.1,2.2-6.5,5.9-6.5c1.7,0,3.1,0.3,4.3,1
		l-0.9,2.3c-0.9-0.5-2-0.8-3.1-0.8c-1.7,0-2.8,1.2-2.8,4c0,2.8,1,4,2.9,4c1.3,0,2.6-0.5,3.4-0.9L155.2,249.6z"/>
	<path class="st3" d="M159.1,250.5v-10.1l-1.5-0.3V238h4.8v12.5H159.1z M159,232.9h3.4v3H159V232.9z"/>
	<path class="st3" d="M177.3,244.2c0,4.2-2.1,6.5-5.9,6.5c-3.7,0-5.9-2.2-5.9-6.5c0-3.7,2-6.5,5.9-6.5
		C175.2,237.8,177.3,240.6,177.3,244.2z M168.3,236.1l-0.3-1.9l6.4-1.8l0.4,2.4L168.3,236.1z M173.8,244.2c0-3-0.9-4-2.4-4
		c-1.6,0-2.4,1.1-2.4,4c0,2.9,0.8,4.1,2.4,4.1C173,248.3,173.8,247.2,173.8,244.2z"/>
	<path class="st3" d="M188.2,250.5v-7.4c0-1.9-0.7-2.8-2.2-2.8c-0.9,0-1.6,0.4-2.2,0.8v9.4h-3.3V238h2.3l0.5,1.4
		c0.7-0.8,2.1-1.7,3.9-1.7c3.2,0,4.4,1.9,4.4,5v7.7H188.2z"/>
	<path class="st3" d="M204.5,251.6v3.7h-3.4V238h2.9l0.3,1.3c0.6-0.8,1.9-1.6,3.3-1.6c2.9,0,5,2.1,5,6.5c0,4.3-2.6,6.5-5.4,6.5
		c-1.4,0-2.2-0.5-3-1.4C204.1,249.3,204.5,250.7,204.5,251.6z M204.5,247.1c0.5,0.7,1.3,1.2,2.2,1.2c1.5,0,2.5-1.1,2.5-4.1
		c0-3-0.9-4-2.4-4c-0.9,0-1.7,0.5-2.3,1V247.1z"/>
	<path class="st3" d="M223.1,250.5l-0.5-1.5c-0.6,0.9-1.9,1.7-3.6,1.7c-2.5,0-4.2-1.6-4.2-4c0-2.3,1.7-3.7,4.7-3.7h2.6v-0.6
		c0-1.6-0.9-2.1-2.2-2.1c-1.5,0-2.7,0.4-3.7,0.8l-0.8-2.4c1.2-0.5,3-1,4.9-1c3.5,0,5.1,1.6,5.1,4.8v7.9H223.1z M222.1,245H220
		c-1.4,0-2,0.7-2,1.6c0,1.1,0.6,1.8,1.9,1.8c0.8,0,1.6-0.4,2.2-0.8V245z"/>
	<path class="st3" d="M236,240.8c-0.4-0.1-1-0.2-1.6-0.2c-0.9,0-1.7,0.4-2.2,0.8v9.1h-3.3V238h2.3l0.4,1.7h0.1
		c0.4-0.9,1.5-1.9,3-1.9c0.7,0,1.2,0.1,1.4,0.2L236,240.8z"/>
	<path class="st3" d="M246.1,250.5l-0.5-1.5c-0.6,0.9-1.9,1.7-3.6,1.7c-2.5,0-4.2-1.6-4.2-4c0-2.3,1.7-3.7,4.7-3.7h2.6v-0.6
		c0-1.6-0.9-2.1-2.2-2.1c-1.5,0-2.7,0.4-3.7,0.8l-0.8-2.4c1.2-0.5,3-1,4.9-1c3.5,0,5.1,1.6,5.1,4.8v7.9H246.1z M245.1,245h-2.1
		c-1.4,0-2,0.7-2,1.6c0,1.1,0.6,1.8,1.9,1.8c0.8,0,1.6-0.4,2.2-0.8V245z"/>
	<path class="st3" d="M258.2,247.2v-14.3h3.3V247c0,1,0.6,1.2,2,1.2v2.3c0,0-1,0.2-1.8,0.2C259.1,250.7,258.2,249.4,258.2,247.2z"/>
	<path class="st3" d="M274,250.5l-0.5-1.5c-0.6,0.9-1.9,1.7-3.6,1.7c-2.5,0-4.2-1.6-4.2-4c0-2.3,1.7-3.7,4.7-3.7h2.6v-0.6
		c0-1.6-0.9-2.1-2.2-2.1c-1.5,0-2.7,0.4-3.7,0.8l-0.8-2.4c1.2-0.5,3-1,4.9-1c3.5,0,5.1,1.6,5.1,4.8v7.9H274z M273,245H271
		c-1.4,0-2,0.7-2,1.6c0,1.1,0.6,1.8,1.9,1.8c0.8,0,1.6-0.4,2.2-0.8V245z"/>
	<path class="st3" d="M77.4,273.1v-17.2h3.3v17.2H77.4z"/>
	<path class="st3" d="M91.5,273.1v-7.4c0-1.9-0.7-2.8-2.2-2.8c-0.9,0-1.6,0.4-2.2,0.8v9.4h-3.3v-12.5H86l0.5,1.4
		c0.7-0.8,2.1-1.7,3.9-1.7c3.2,0,4.4,1.9,4.4,5v7.7H91.5z"/>
	<path class="st3" d="M105.1,273.1v-7.4c0-1.9-0.7-2.8-2.2-2.8c-0.9,0-1.6,0.4-2.2,0.8v9.4h-3.3v-12.5h2.3l0.5,1.4
		c0.7-0.8,2.1-1.7,3.9-1.7c3.2,0,4.4,1.9,4.4,5v7.7H105.1z"/>
	<path class="st3" d="M122.1,266.8c0,4.2-2.1,6.5-5.9,6.5c-3.7,0-5.9-2.2-5.9-6.5c0-3.7,2-6.5,5.9-6.5
		C120,260.4,122.1,263.2,122.1,266.8z M118.7,266.8c0-3-0.9-4-2.5-4c-1.5,0-2.4,1.1-2.4,4c0,2.9,0.8,4.1,2.4,4.1
		C117.9,270.9,118.7,269.8,118.7,266.8z"/>
	<path class="st3" d="M131.6,273.1h-4.9l-3.7-12.5h3.7l2.6,10.5h0.1l2.6-10.5h3.4L131.6,273.1z"/>
	<path class="st3" d="M144.6,273.1l-0.5-1.5c-0.6,0.9-1.9,1.7-3.6,1.7c-2.5,0-4.2-1.6-4.2-4c0-2.3,1.7-3.7,4.7-3.7h2.6V265
		c0-1.6-0.9-2.1-2.2-2.1c-1.5,0-2.7,0.4-3.7,0.8l-0.8-2.4c1.2-0.5,2.9-1,4.9-1c3.5,0,5.1,1.6,5.1,4.8v7.9H144.6z M143.6,267.7h-2.1
		c-1.4,0-2,0.7-2,1.6c0,1.1,0.6,1.8,1.9,1.8c0.8,0,1.6-0.4,2.2-0.8V267.7z"/>
	<path class="st3" d="M159.4,272.3c-0.7,0.4-2.4,1.1-4.3,1.1c-3.7,0-6-2.1-6-6.5c0-4.1,2.2-6.5,5.9-6.5c1.7,0,3.1,0.3,4.3,1
		l-0.9,2.3c-0.9-0.5-2-0.8-3.1-0.8c-1.7,0-2.8,1.2-2.8,4c0,2.8,1,4,2.8,4c1.3,0,2.6-0.5,3.4-0.9L159.4,272.3z"/>
	<path class="st3" d="M162.4,273.1V263l-1.4-0.3v-2.1h4.8v12.5H162.4z M162.3,255.5h3.4v3h-3.4V255.5z"/>
	<path class="st3" d="M179.7,266.8c0,4.2-2.1,6.5-5.8,6.5c-3.7,0-5.9-2.2-5.9-6.5c0-3.7,2-6.5,5.9-6.5
		C177.6,260.4,179.7,263.2,179.7,266.8z M170.7,258.7l-0.3-1.9l6.4-1.8l0.4,2.4L170.7,258.7z M176.2,266.8c0-3-0.9-4-2.4-4
		c-1.6,0-2.4,1.1-2.4,4c0,2.9,0.8,4.1,2.4,4.1C175.4,270.9,176.2,269.8,176.2,266.8z"/>
	<path class="st3" d="M189.6,273.1v-7.4c0-1.9-0.7-2.8-2.2-2.8c-0.9,0-1.6,0.4-2.2,0.8v9.4h-3.3v-12.5h2.3l0.5,1.4
		c0.7-0.8,2.1-1.7,3.9-1.7c3.2,0,4.4,1.9,4.4,5v7.7H189.6z"/>
	<path class="st3" d="M202.9,273.1h-3.3l4.7-17.2h5.5l4.5,17.2h-3.7l-0.9-3.9h-5.9L202.9,273.1z M206.3,258.9l-1.9,7.7h4.7l-1.8-7.7
		H206.3z"/>
	<path class="st3" d="M227.2,260.6l-0.1,2.5c-0.6,0-1.5-0.1-2.3-0.4c0.6,0.5,1.1,1.1,1.2,2c0,3.1-3,4.3-5.1,4.3
		c-0.5,0-1.1-0.1-1.6-0.2c-0.4,0.1-0.6,0.4-0.6,0.7c0,1.4,7.9-0.2,7.9,4.5c0,2.9-2.8,4.5-5.9,4.5c-2.6,0-5.3-1.1-5.3-3.4
		c0-1.6,1.3-2.4,3.3-2.7c-1.5-0.2-3.1-0.7-3.1-2.1c0-1,1-1.8,2.4-1.9c-1.3-0.7-2.2-1.7-2.2-3.5c0-3.3,3.1-4.3,5.1-4.3
		C222.3,260.4,225.1,260.6,227.2,260.6z M220.4,272.4c-1.2,0.1-1.9,0.8-1.9,1.8c0,1.1,1,1.9,2.3,1.9c1.5,0,2.5-0.8,2.5-2.1
		C223.4,273,222.4,272.5,220.4,272.4z M223.1,264.6c0-1.5-1.2-1.9-2.2-1.9c-1,0-2.2,0.4-2.2,1.9c0,1.6,1.2,2,2.2,2
		C221.9,266.6,223.1,266.2,223.1,264.6z"/>
	<path class="st3" d="M236.2,263.4c-0.4-0.1-1-0.2-1.6-0.2c-0.9,0-1.7,0.4-2.2,0.8v9.1h-3.3v-12.5h2.3l0.4,1.7h0.1
		c0.4-0.9,1.5-1.9,3-1.9c0.7,0,1.2,0.1,1.5,0.2L236.2,263.4z"/>
	<path class="st3" d="M245.4,273.1l-0.5-1.5c-0.6,0.9-1.9,1.7-3.6,1.7c-2.5,0-4.2-1.6-4.2-4c0-2.3,1.7-3.7,4.7-3.7h2.6V265
		c0-1.6-0.9-2.1-2.2-2.1c-1.5,0-2.7,0.4-3.7,0.8l-0.8-2.4c1.2-0.5,3-1,4.9-1c3.5,0,5.1,1.6,5.1,4.8v7.9H245.4z M244.5,267.7h-2.1
		c-1.4,0-2,0.7-2,1.6c0,1.1,0.6,1.8,1.9,1.8c0.8,0,1.6-0.4,2.2-0.8V267.7z"/>
	<path class="st3" d="M257.4,263.4c-0.4-0.1-1-0.2-1.5-0.2c-0.9,0-1.7,0.4-2.2,0.8v9.1h-3.3v-12.5h2.3l0.3,1.7h0.1
		c0.4-0.9,1.5-1.9,3-1.9c0.7,0,1.2,0.1,1.5,0.2L257.4,263.4z"/>
	<path class="st3" d="M260.1,273.1V263l-1.4-0.3v-2.1h4.8v12.5H260.1z M260,255.5h3.4v3H260V255.5z"/>
	<path class="st3" d="M273.9,273.1l-0.5-1.5c-0.6,0.9-1.9,1.7-3.6,1.7c-2.5,0-4.2-1.6-4.2-4c0-2.3,1.7-3.7,4.7-3.7h2.6V265
		c0-1.6-0.9-2.1-2.2-2.1c-1.5,0-2.7,0.4-3.7,0.8l-0.8-2.4c1.3-0.5,3-1,4.9-1c3.5,0,5.1,1.6,5.1,4.8v7.9H273.9z M273,267.7h-2.1
		c-1.4,0-2,0.7-2,1.6c0,1.1,0.6,1.8,1.9,1.8c0.8,0,1.6-0.4,2.2-0.8V267.7z"/>
	<rect x="173.1" y="12.2" class="st4" width="7.3" height="100.5"/>
	<path class="st4" d="M200.4,14.9V19v4.4v89.2h7.4V76.1h52.8c4.7,11,7.3,23.1,7.3,35.8c0,0.2,0,0.3,0,0.5h8.2c0-0.2,0-0.3,0-0.5
		C276.1,65.2,243.9,25.8,200.4,14.9z M207.8,68.8V25.8c21.2,7.8,38.8,23.2,49.3,42.9H207.8z"/>
	<path class="st4" d="M151.6,23.9v-8.5c-42.6,11.4-74,50.4-74,96.5c0,0.2,0,0.3,0,0.5h8.2c0-0.2,0-0.3,0-0.5
		c0-12.7,2.6-24.8,7.3-35.8h58.5v-7.4h-55C108.1,47.3,127.9,30.9,151.6,23.9z"/>
	<g>
		<rect x="158.6" y="287.7" class="st5" width="118" height="11.2"/>
		<rect x="77.3" y="287.7" class="st4" width="81.3" height="11.2"/>
	</g>
</g>
</svg>
